# xmcd
#
# Track frame offsets:
#	150
#	15657
#	28686
#	42693
#	58389
#	73535
#	86875
#	100705
#	112991
#	128768
#
# Disc length: 1919 seconds
#
# Revision: 0
# Processed by: cddbd v1.5.2PL0 Copyright (c) Steve Scherf et al.
# Submitted via: EasyCDDAExtractor 16.0.6.1
#
DISCID=88077d0a
DTITLE=Συλλογικός δίσκος - Λαϊκό τραγούδι 1954-1967, 1956-3
DYEAR=2008
DGENRE=Λαϊκή
TTITLE0=Ρουμελιώτης Δημήτρης-Μητσάκης Γιώργος - Έδιωξες τον Δημητράκη [Γιώργος
TTITLE0=Μητσάκης]
TTITLE1=Τσαουσάκης Πρόδρομος-Πάνου Πόλυ - Είμαι φτωχός και τίμιος [Μπάμπης Μπα
TTITLE1=κάλης]
TTITLE2=Γκρέϋ Καίτη - Το πείσμα σου μάς χώρισε [Στέλιος Χρυσίνης-Κώστας Ζήτης]
TTITLE3=Καζαντζίδης Στέλιος - Γειτονιά μου αγαπημένη [Θεὀδωρος Δερβενιώτης-Κώσ
TTITLE3=τας Βίρβος]
TTITLE4=Γκρέϋ Καίτη - Τι να πρωτοκλάψω [Γιώργος Ζαμπέτας]
TTITLE5=Μπιθικώτσης Γρηγόρης-Γκρέζη Νίτσα - Μάγκας θα πει φιλότιμος [Μπάμπης Μ
TTITLE5=πακάλης]
TTITLE6=Γεωργακοπούλου Ιωάννα-Κλειδωνιάρης Αντώνης - Ανάθεμα τον έρωτα [Θεόδωρ
TTITLE6=ος Δερβενιώτης-Στέλιος Χρυσίνης]
TTITLE7=Καζαντζίδης Στέλιος - Θα τό 'γραψε η μοίρα μου [Γιώργος Μητσάκης]
TTITLE8=Τσαουσάκης Πρόδρομος - Χτύπα με μοίρα, χτύπα με [Θεόδωρος Δερβενιώτης]
TTITLE9=Περπινιάδης Βαγγέλης - Κλάψτε με φίλοι, κλάψτε με [Βαγγέλης Περπινιάδη
TTITLE9=ς]
EXTD=
EXTT0=
EXTT1=
EXTT2=
EXTT3=
EXTT4=
EXTT5=
EXTT6=
EXTT7=
EXTT8=
EXTT9=
PLAYORDER=
